<mxfile host="app.diagrams.net" modified="2023-04-09T04:59:33.106Z" agent="Mozilla/5.0 (Windows NT 10.0; Win64; x64) AppleWebKit/537.36 (KHTML, like Gecko) Chrome/112.0.0.0 Safari/537.36 Edg/112.0.1722.34" etag="9Bh22bJkRO1z8M8iyt7B" version="21.1.5" type="github">
  <diagram name="PÃ¡gina-1" id="UMxCw8zkfoW1ePvwOfRb">
    <mxGraphModel dx="878" dy="524" grid="1" gridSize="10" guides="1" tooltips="1" connect="1" arrows="1" fold="1" page="1" pageScale="1" pageWidth="827" pageHeight="1169" math="0" shadow="0">
      <root>
        <mxCell id="0" />
        <mxCell id="1" parent="0" />
      </root>
    </mxGraphModel>
  </diagram>
</mxfile>
